<?xml version="1.0" encoding="iso-8859-1"?>
<!-- Generator: Adobe Illustrator 19.0.0, SVG Export Plug-In . SVG Version: 6.00 Build 0)  -->
<svg version="1.1" id="Capa_1" xmlns="http://www.w3.org/2000/svg" xmlns:xlink="http://www.w3.org/1999/xlink" x="0px" y="0px"
	 viewBox="0 0 512 512" style="enable-background:new 0 0 512 512;" xml:space="preserve">
<path style="fill:#7A0212;" d="M256,455.431l206.581-59.527c31.048-8.947,45.665-44.482,29.897-72.686l0,0
	c-15.768-28.202-53.696-34.362-77.577-12.597L256,455.431"/>
<path style="fill:#A3021A;" d="M256,455.431l227.711-153.26c34.223-23.034,38.065-71.942,7.856-100.037l0,0
	c-30.208-28.094-78.71-20.72-99.205,15.082L256,455.431"/>
<path style="fill:#DE0418;" d="M256,455.431l164.726-264.604c24.758-39.769,6.012-92.228-38.342-107.301l0,0
	c-44.354-15.072-91.182,15.103-95.781,61.722L256,455.431"/>
<path style="fill:#FF421D;" d="M256,455.431l112.583,20.247c16.92,3.043,32.263-10.47,31.381-27.639l0,0
	c-0.882-17.169-17.528-29.04-34.047-24.28L256,455.431"/>
<path style="fill:#A3021A;" d="M256,455.431L49.419,395.904c-31.048-8.947-45.665-44.482-29.897-72.686l0,0
	c15.768-28.202,53.696-34.362,77.577-12.597L256,455.431"/>
<path style="fill:#DE0418;" d="M256,455.431L28.289,302.171c-34.223-23.034-38.065-71.942-7.856-100.037l0,0
	c30.208-28.094,78.71-20.72,99.205,15.082L256,455.431"/>
<path style="fill:#FF421D;" d="M256,455.431L91.274,190.827c-24.758-39.769-6.012-92.228,38.342-107.301l0,0
	c44.354-15.072,91.182,15.103,95.781,61.722L256,455.431"/>
<path style="fill:#FF6536;" d="M256,455.431l-75.651-324.203C168.979,82.502,205.965,35.892,256,35.892l0,0
	c50.035,0,87.021,46.61,75.651,95.336L256,455.431"/>
<path style="fill:#FF421D;" d="M256,455.431c0,0,0-385.741,0-419.539l0,0c50.035,0,87.021,46.61,75.651,95.336L256,455.431"/>
<path style="fill:#FF6536;" d="M256,455.431l-112.583,20.247c-16.92,3.043-32.263-10.47-31.381-27.639l0,0
	c0.882-17.169,17.528-29.04,34.047-24.28L256,455.431"/>
<g>
</g>
<g>
</g>
<g>
</g>
<g>
</g>
<g>
</g>
<g>
</g>
<g>
</g>
<g>
</g>
<g>
</g>
<g>
</g>
<g>
</g>
<g>
</g>
<g>
</g>
<g>
</g>
<g>
</g>
</svg>
